<?xml version="1.0" encoding="utf-8"?>
<!-- Generator: Adobe Illustrator 24.1.2, SVG Export Plug-In . SVG Version: 6.00 Build 0)  -->
<svg version="1.1" id="Layer_1" xmlns="http://www.w3.org/2000/svg" xmlns:xlink="http://www.w3.org/1999/xlink" x="0px" y="0px"
	 viewBox="0 0 145.1 225.1" style="enable-background:new 0 0 145.1 225.1;" xml:space="preserve">
<path d="M104.4,112.2c-10.6-9.1-21-18-31.5-27C51.1,66.5,29.3,47.8,7.4,29.1c-4.6-3.9-7.2-8.6-6.5-14.7c0.7-6.2,4-10.7,9.8-13.1
	c6-2.5,11.6-1.4,16.5,2.7c8.1,6.8,16.2,13.8,24.2,20.7c28.9,24.7,57.7,49.5,86.6,74.1c5.4,4.6,8.5,10.1,6.4,17.1
	c-1,3.3-3.1,6.7-5.7,9C101.5,157.1,64,189,26.6,221c-7.1,6-17,5.2-22.8-1.7c-5.9-7.1-4.9-16.7,2.5-23c31.7-27.2,63.4-54.3,95.1-81.5
	C102.4,114.1,103.2,113.3,104.4,112.2z"/>
</svg>
