<?xml version="1.0" encoding="utf-8"?>
<!-- Generator: Adobe Illustrator 24.1.2, SVG Export Plug-In . SVG Version: 6.00 Build 0)  -->
<svg version="1.1" id="Layer_1" xmlns="http://www.w3.org/2000/svg" xmlns:xlink="http://www.w3.org/1999/xlink" x="0px" y="0px"
	 viewBox="0 0 302.3 335.7" style="enable-background:new 0 0 302.3 335.7;" xml:space="preserve">
<g>
	<path d="M210.1,287.7c-7.6,32-34.3,47.8-58.4,48c-24.1,0.2-51.6-15.2-59.5-48c-1.3,0-2.6,0-4,0c-21,0-42,0-63,0
		c-10.2,0-18-4.2-22.5-13.4c-4.5-9.3-3-18,3.2-26.3c7.4-10,14.4-20.4,21.4-30.7c2.9-4.2,3.9-9.1,3.8-14.2
		c-0.1-27.7-0.6-55.4,0.1-83.1c1.4-51.4,25.6-88.8,72.5-109.9c67.7-30.5,148.1,10.4,164.3,82.9c2.1,9.3,2.9,19,3.1,28.5
		c0.4,26.9,0.2,53.9,0.1,80.8c0,6.4,1.6,12,5.3,17.2c7.1,9.9,14.1,20,21.1,30c5.5,7.8,6.3,16.3,2,24.8c-4.2,8.5-11.5,13.1-21.1,13.2
		c-21.4,0.2-42.8,0.1-64.1,0.1C213,287.7,211.6,287.7,210.1,287.7z M277.8,263.6c-7.3-10.4-14.1-20.5-21.2-30.4
		c-6.5-9.2-9.6-19.3-9.5-30.5c0.1-26.8,0.1-53.6,0-80.5c0-4.1-0.2-8.2-0.6-12.3c-6-58.5-64-98-120.8-82.2
		c-41.7,11.6-70.4,48.8-70.6,92c-0.2,27.7-0.1,55.4,0,83.1c0,11.2-3.1,21.3-9.6,30.5c-6.4,9-12.6,18-18.8,27c-0.7,1-1.4,2-2.3,3.3
		C109,263.6,193.1,263.6,277.8,263.6z M184.5,288c-22.3,0-44.5,0-66.8,0c4.1,13.9,18.8,24,34.3,23.7
		C166.7,311.4,181.3,300.8,184.5,288z"/>
</g>
</svg>
