<?xml version="1.0" encoding="utf-8"?>
<!-- Generator: Adobe Illustrator 24.1.2, SVG Export Plug-In . SVG Version: 6.00 Build 0)  -->
<svg version="1.1" id="Layer_1" xmlns="http://www.w3.org/2000/svg" xmlns:xlink="http://www.w3.org/1999/xlink" x="0px" y="0px"
	 viewBox="0 0 288.1 359.6" style="enable-background:new 0 0 288.1 359.6;" xml:space="preserve">
<g>
	<path d="M288,178.2c0,51,0,102.1,0,153.1c0,17.9-17.2,29.6-33.3,22.7c-2.7-1.2-5.2-3-7.4-4.9c-4.7-4.1-9.2-8.4-13.8-12.6
		c-5.7-5.2-10.5-4.9-15.4,0.9c-2.7,3.2-5.4,6.6-8.2,9.8c-14.4,16.6-37.2,16.6-51.6,0c-2.4-2.7-4.6-5.6-7-8.3
		c-4.2-4.8-10.1-4.8-14.3,0c-2.7,3.1-5.2,6.4-8,9.4c-13.4,15-35.7,15.2-49.4,0.5c-3.4-3.7-6.5-7.6-9.7-11.4
		c-4.7-5.6-9.7-5.9-15.1-0.9c-4.8,4.4-9.5,8.8-14.4,13.1c-7.8,6.9-16.7,8.5-26.1,4.4C4.9,349.7,0,342,0,331.6C0,229.3,0,127,0,24.6
		C0,10.4,10.4,0,24.6,0c79.6,0,159.3,0,238.9,0C277.7,0,288,10.4,288,24.7C288.1,75.9,288,127.1,288,178.2z M24.2,24.1
		c0,102.6,0,204.8,0,307.7c5.5-5,10.4-9.6,15.5-14.2c14.7-12.9,35.3-11.4,48,3.5c3.1,3.6,6,7.4,9.1,10.9c4.2,4.8,10,4.8,14.3,0.1
		c2.7-3,5.1-6.1,7.7-9.1c13.5-15.4,36.1-15.6,49.9-0.5c2.7,3,5.1,6.1,7.7,9.1c4.7,5.4,10.4,5.4,15.1,0.1c3.4-3.9,6.5-7.9,9.9-11.7
		c11.9-13.2,31.9-14.7,45.6-3.3c5,4.2,9.6,8.7,14.4,13.1c0.7,0.6,1.4,1.1,2.3,1.7c0-102.7,0-204.9,0-307.3
		C183.9,24.1,104.2,24.1,24.2,24.1z"/>
	<path d="M158.9,78.6c0,6-0.2,12,0.1,18c0.1,1.6,1.1,3.5,2.3,4.5c4.7,3.9,9.8,7.4,14.6,11.1c6.2,4.7,7.3,10.8,3.2,17.4
		c-9.1,14.6-18.2,29.2-27.4,43.8c-3.3,5.3-8.4,7.4-13.7,5.9c-5.6-1.6-8.9-6-9-12.3c-0.1-9.5-0.1-19,0-28.4c0-2.3-0.7-3.6-2.8-4.6
		c-4.3-1.9-8.5-4.1-12.7-6.3c-6.7-3.5-9-9.9-5.7-16.7c9.2-18.7,18.6-37.3,27.9-55.8c2.8-5.6,8.2-8.1,13.6-6.8
		c5.8,1.4,9.3,5.9,9.4,12.4C159,66.6,158.9,72.6,158.9,78.6z"/>
	<path d="M144.2,233.6c-19.9,0-39.7,0.1-59.6,0c-9.4,0-15.3-9-11.3-17.1c2.3-4.7,6.3-6.8,11.6-6.8c20.1,0,40.2,0,60.4,0
		c19.1,0,38.2,0,57.4,0c8,0,13.4,4.9,13.5,11.9c0,7.1-5.4,12-13.3,12C183.2,233.6,163.7,233.6,144.2,233.6z"/>
	<path d="M144.1,281.5c-19.9,0-39.7,0-59.6,0c-6.6,0-11.7-4.6-12.4-10.7c-0.6-5.9,3.2-11.4,9.1-12.9c1.1-0.3,2.2-0.3,3.3-0.3
		c39.6,0,79.2,0,118.9,0c9.6,0,15.5,9.3,11.2,17.4c-2.5,4.7-6.5,6.6-11.7,6.6C183.3,281.5,163.7,281.5,144.1,281.5z"/>
</g>
</svg>
