<?xml version="1.0" encoding="utf-8"?>
<!-- Generator: Adobe Illustrator 24.1.2, SVG Export Plug-In . SVG Version: 6.00 Build 0)  -->
<svg version="1.1" id="Layer_1" xmlns="http://www.w3.org/2000/svg" xmlns:xlink="http://www.w3.org/1999/xlink" x="0px" y="0px"
	 viewBox="0 0 284.7 275.6" style="enable-background:new 0 0 284.7 275.6;" xml:space="preserve">
<g>
	<path d="M88.1,111.4c-0.9-6.4-0.9-6.4-6.9-7.9c-24.1-6-40.7-27-40.5-51.4C40.9,27.5,57.7,6.9,82,1.3c23.1-5.3,47.5,6.4,58.3,28
		c0.4,0.9,0.9,1.8,1.5,3.1c0.7-1.2,1.2-2.1,1.7-3C154.3,8,177.9-3.7,201,1.1c23.8,4.9,41.1,25.2,42.2,49.4
		c1.1,24.5-15.9,47.1-40.5,52.8c-4.9,1.1-6.6,3.4-7.1,8c8.4-0.5,16.2-3.1,23-7.9c4.2-3,8.2-3.3,13-2.2c30.2,6.7,52.7,34.3,53,65.2
		c0.1,7.5-0.2,15,0.1,22.5c0.2,4.9-1.7,8.7-5,12c-5.5,5.4-12.3,8.4-19.4,10.9c-3.5,1.2-7.1,2.4-10.8,3c-3.6,0.5-4.3,2.1-4.2,5.4
		c0.3,6.9-0.2,13.7,0.2,20.6c0.3,6-2.2,10.3-6.4,14c-6.1,5.4-13.4,8.6-21,11.1c-16.2,5.4-33.1,7.6-50,8.8c-23.5,1.7-47,1.1-70.3-2.1
		c-12.9-1.8-25.6-4.3-37.6-9.5c-3.8-1.6-7.4-3.6-10.8-5.9c-6.7-4.4-11.1-10-10.1-18.9c0.7-6.3,0-12.7,0.2-19.1
		c0.1-2.7-0.8-3.7-3.5-4.6c-8.4-2.8-16.6-6-24.7-9.4c-2.7-1.1-4.8-3.5-7-5.5c-3.1-2.8-4.5-6.3-4.3-10.7c0.3-11-0.6-22,0.7-32.9
		c3.2-26.8,22-47.3,48.1-54.2c6.7-1.8,12.6-2.1,18.7,2.5C73,108.9,79.6,110.4,88.1,111.4z M146.9,260.7c5.7-0.3,15.8-0.5,25.9-1.6
		c10-1.1,20-2.7,30-4.6c8.6-1.7,17-4.2,24.3-9.4c1.6-1.1,3.1-3.5,3.2-5.3c0.3-7.7,0.3-15.5,0.1-23.2c-0.8-27.2-18.4-49.8-44.1-56.6
		c-1.8-0.5-4.3-0.3-5.9,0.6c-25.7,14.4-51.3,14.4-76.9-0.3c-1.2-0.7-2.8-1.1-4.1-0.9c-22.8,3.5-43.2,25.1-44.7,48
		c-0.7,10.4-0.1,20.9-0.3,31.4c-0.1,2.7,0.8,4.7,3.1,5.8c5.6,2.7,11.1,5.7,17,7.5C96.5,258.9,119.4,260.3,146.9,260.7z M39.6,201.3
		c0.6-1.8,0.9-2.4,1-3c8-30.6,28.4-47.9,58.8-54.2c3.2-0.7,6-0.2,8.9,1.6c22.3,14.4,44.8,14.3,67.1,0c2.7-1.7,5.4-2.3,8.5-1.6
		c30,6.5,49.4,24.5,58.6,53.7c0.3,0.9,0.6,1.8,1,3c8.2-1.9,16.2-3.9,23.1-8.6c1.4-1,2.8-3,2.8-4.6c0.3-7.5,0.3-15,0-22.4
		c-0.7-22.6-17.5-43.3-39.4-48.6c-1.5-0.4-3.6-0.1-4.9,0.6c-11.3,6.6-23.4,9.7-36.5,9.6c-1.6,0-3.6,0.9-4.7,2.1
		c-23.3,24.6-61,24.6-84.5,0.1c-1.2-1.2-3.3-2.2-5-2.1c-12.9,0.1-24.9-3.1-36.1-9.6c-1.3-0.7-3.1-1.1-4.5-0.9
		c-19.4,3.5-36.2,20.4-38.6,39.9c-1.2,9.8-0.5,19.9-0.8,29.9c-0.1,2.9,0.9,4.9,3.3,6C25.1,195.1,32.1,198.1,39.6,201.3z M184.3,90
		c0.1-23.4-18.9-42.4-42.3-42.5c-23.2-0.1-42.5,19-42.6,42.3c-0.1,23.2,19,42.4,42.3,42.6C165.1,132.4,184.3,113.3,184.3,90z
		 M157.9,34.5c25.6,9.2,39.5,27.1,41.7,53.9c14.2-1.6,27.2-16.9,28.6-33.5c1.5-16.6-10.1-33.3-26.5-38.3
		C184.7,11.5,166.3,18.9,157.9,34.5z M84.3,88.5c2.2-26.9,16.3-44.9,41.7-54c-7.4-14.8-25.6-22.6-42-18.3
		c-17.8,4.6-29.1,20.3-28.2,39.1C56.7,70.9,69.8,86.3,84.3,88.5z"/>
</g>
</svg>
