<?xml version="1.0" encoding="utf-8"?>
<!-- Generator: Adobe Illustrator 24.1.2, SVG Export Plug-In . SVG Version: 6.00 Build 0)  -->
<svg version="1.1" id="Layer_1" xmlns="http://www.w3.org/2000/svg" xmlns:xlink="http://www.w3.org/1999/xlink" x="0px" y="0px"
	 viewBox="0 0 288.2 319.1" style="enable-background:new 0 0 288.2 319.1;" xml:space="preserve">
<g>
	<path d="M0.1,159.4c0-20.5,0.2-40.9-0.1-61.4c-0.1-14,5.6-24,17.8-30.9C54.2,46.6,90.6,25.9,126.8,5c11.8-6.8,23-6.7,34.7,0.1
		c35.9,20.7,71.9,41.2,108,61.5c12.7,7.1,18.7,17.4,18.6,32c-0.3,40.8-0.2,81.6,0,122.4c0.1,13.9-5.6,24-17.8,30.9
		c-36.5,20.6-72.9,41.4-109.3,62.3c-11.3,6.5-22.3,6.6-33.7,0.1c-36.6-21-73.3-41.8-110-62.6C5.6,244.9-0.1,235,0,221.5
		C0.2,200.8,0.1,180.1,0.1,159.4z M44.2,89c1.3,0.8,2,1.3,2.9,1.7c31.5,16.5,63,32.9,94.4,49.5c2.1,1.1,3.6,0.7,5.5-0.3
		c23.9-12.7,47.8-25.4,71.7-38c8.1-4.3,16.2-8.6,24.6-13.1c-1.3-0.8-2.1-1.4-2.9-1.9c-31.1-17.7-62.2-35.4-93.3-53.2
		c-2.2-1.3-3.8-1.3-6.1,0c-23.3,13.4-46.6,26.6-69.9,39.9C62.3,78.6,53.5,83.7,44.2,89z M160,277.7c1.7-0.9,2.8-1.4,3.9-2
		c29.5-16.8,59-33.6,88.5-50.3c2.8-1.6,3.7-3.3,3.7-6.4c-0.1-32.3-0.1-64.6-0.1-96.9c0-1.1-0.1-2.1-0.3-3.5
		c-1.5,0.7-2.6,1.3-3.7,1.8c-29.4,15.6-58.8,31.2-88.3,46.7c-2.8,1.5-3.9,3-3.8,6.3c0.1,33.3,0.1,66.6,0.1,99.9
		C160,274.5,160,275.7,160,277.7z M32.4,119.1c-0.1,1-0.3,1.6-0.3,2.2c0,33.1,0,66.1-0.1,99.2c0,2.3,1.1,3.3,2.8,4.3
		c30.2,17.1,60.3,34.3,90.4,51.5c0.8,0.4,1.7,0.7,2.8,1.1c0-1.6,0-2.8,0-3.9c0-33.4,0-66.9,0.1-100.3c0-3.1-1-4.6-3.7-6
		c-23.5-12.2-46.9-24.5-70.3-36.7C47.1,126.7,39.9,123,32.4,119.1z"/>
</g>
</svg>
