<?xml version="1.0" encoding="utf-8"?>
<!-- Generator: Adobe Illustrator 24.1.2, SVG Export Plug-In . SVG Version: 6.00 Build 0)  -->
<svg version="1.1" id="Layer_1" xmlns="http://www.w3.org/2000/svg" xmlns:xlink="http://www.w3.org/1999/xlink" x="0px" y="0px"
	 viewBox="0 0 233.7 408.8" style="enable-background:new 0 0 233.7 408.8;" xml:space="preserve">
<g>
	<path d="M122.5,0c2.3,1.3,4.7,2.4,6.7,4c4,3.2,5.5,7.7,5.4,12.7c-0.1,9.7,0,19.4,0,28.6c10.5,2.2,20.8,3.8,30.7,6.4
		c18.4,5,34.7,14,49.2,26.3c6.4,5.5,7.9,12.8,5.5,20.7c-2.6,8.7-8.7,13.8-17.5,15.4c-6,1.1-11.2-0.7-16.1-4.3
		c-14-10.4-29.5-17.3-46.5-20.9c-0.8-0.2-1.6-0.3-2.4-0.4c-0.6-0.1-1.3-0.1-2.5-0.3c0,1.4,0,2.7,0,4c0,27.5,0.1,55.1-0.1,82.6
		c0,3.1,1,4.3,4,5.1c18.8,5.3,37.5,11,54.4,21.1c18.3,10.9,32.1,25.5,37.3,46.7c10.4,41.9-5.5,88.7-53.4,107.3
		c-12.6,4.9-25.7,7.5-39.2,8.7c-0.9,0.1-1.8,0.2-3.1,0.4c0,4.7,0,9.1,0,13.6c-0.1,5.6,0.2,11.2-0.3,16.7
		c-0.9,8.8-7.9,14.5-16.8,14.1c-8.6-0.4-15.2-7-15.4-15.8c-0.2-9.3,0-18.6,0-27.9c-8.2-1.1-16.1-1.9-23.9-3.3
		c-27.4-5.1-51.5-17.3-72.4-35.7c-7.6-6.7-8.2-19.4-1.6-28c6.9-9.1,18.1-11.5,27.2-5.7c4.9,3.2,9.4,7,14.2,10.3
		c15.9,10.7,33.4,17.4,52.2,20.6c0.8,0.1,1.6,0.2,2.4,0.2c0.4,0,0.8-0.1,1.6-0.3c0-1.3,0-2.5,0-3.8c0-31.5-0.1-63.1,0.1-94.6
		c0-3.4-1.2-4.5-4.2-5.3c-18.4-5.2-36.8-10.5-53.6-20c-18.5-10.4-32.6-24.7-37.3-46C0,121.1,8.2,93.1,33.6,71.1
		c18.5-16,40.7-23.1,64.6-25.5c3.4-0.3,4.1-1.5,4-4.6c-0.2-6.6,0.3-13.3-0.1-20c-0.6-10,2.6-17.4,12.4-21.1C117.1,0,119.8,0,122.5,0
		z M135.2,323.9c20.6-1.3,40.3-12.3,47.3-29c6.2-15,6.4-29.8-4.9-42.6c-11.1-12.5-26.7-17-42.4-21.6
		C135.2,262.1,135.2,293,135.2,323.9z M102.2,170.5c0-28.3,0-56.2,0-84.2c-2.3,0.3-4.3,0.5-6.2,0.8c-15,2.6-28.4,8.1-37.3,21.3
		c-9.2,13.7-8.4,32.4,2,42.4C72.2,162,87.2,165.9,102.2,170.5z"/>
</g>
</svg>
