<?xml version="1.0" encoding="utf-8"?>
<!-- Generator: Adobe Illustrator 24.1.2, SVG Export Plug-In . SVG Version: 6.00 Build 0)  -->
<svg version="1.1" id="Layer_1" xmlns="http://www.w3.org/2000/svg" xmlns:xlink="http://www.w3.org/1999/xlink" x="0px" y="0px"
	 viewBox="0 0 383.4 383.4" style="enable-background:new 0 0 383.4 383.4;" xml:space="preserve">
<g>
	<path d="M383.4,109.4c-9,0-17.9,0-27.2,0c0-27.2,0-54.2,0-81.7c-27.4,0-54.5,0-81.9,0c0-9.4,0-18.3,0-27.6c1.5,0,2.9,0,4.4,0
		c29,0,58.1,0.2,87.1-0.1c8.5-0.1,14.5,2.5,17.6,10.6C383.4,43.6,383.4,76.5,383.4,109.4z"/>
	<path d="M10.6,383.4c-8.1-3.2-10.7-9.2-10.6-17.6c0.3-29,0.1-58.1,0.1-87.1c0-1.4,0-2.7,0-4.4c9.1,0,18,0,27.3,0c0,27,0,54,0,81.5
		c27.4,0,54.5,0,82,0c0,9.5,0,18.6,0,27.6C76.5,383.4,43.6,383.4,10.6,383.4z"/>
	<path d="M274.1,383.4c0-9,0-17.9,0-27.4c27.2,0,54.3,0,81.8,0c0-27.5,0-54.5,0-81.9c9.4,0,18.5,0,27.5,0c0,32.9,0,65.9,0,98.8
		c-2,5-5.5,8.5-10.5,10.5C340,383.4,307,383.4,274.1,383.4z"/>
	<path d="M109.3,27.6c-27.3,0-54.2,0-81.6,0c0,27.4,0,54.5,0,81.8c-9.3,0-18.1,0-27.5,0c0-1.3,0-2.6,0-3.9c0-29.9,0-59.9,0-89.8
		C0.2,5.5,5.5,0.2,15.6,0.2c30.1,0,60.1,0,90.2,0c1.1,0,2.2,0,3.6,0C109.3,9.3,109.3,18.2,109.3,27.6z"/>
</g>
</svg>
