<?xml version="1.0" encoding="utf-8"?>
<!-- Generator: Adobe Illustrator 24.1.2, SVG Export Plug-In . SVG Version: 6.00 Build 0)  -->
<svg version="1.1" id="Layer_1" xmlns="http://www.w3.org/2000/svg" xmlns:xlink="http://www.w3.org/1999/xlink" x="0px" y="0px"
	 viewBox="0 0 377 375.3" style="enable-background:new 0 0 377 375.3;" xml:space="preserve">
<g>
	<path d="M0.1,256.2c0-32.7,0.1-65.4-0.1-98.1c-0.1-17.6,6.8-31,21.2-41.3C73.4,79.5,125.4,41.9,177.5,4.4c8.1-5.9,14-5.9,22.3,0.1
		C252,42.1,304.3,79.8,356.6,117.4c13.8,9.9,20.5,23,20.4,39.8c0,66.5,0,133,0,199.5c0,11.3-7.1,18.6-18.4,18.6
		c-39.7,0-79.5,0-119.2,0c-11.2,0-17.6-6.5-17.6-17.8c0-24.3,0-48.7,0-73c0-16.7-9.8-30-25-34.1c-22.2-6.1-43.5,9.7-43.8,32.7
		c-0.2,24.7-0.1,49.4-0.1,74.1c0,11.7-6.4,18.1-18,18.1c-38.9,0-77.7,0-116.6,0c-11.8,0-18.2-6.5-18.2-18.4
		C0,323.3,0.1,289.8,0.1,256.2z M122.6,343.1c0-1.6,0-3.1,0-4.6c0-19.1-0.4-38.2,0.2-57.3c1.1-35.1,29.1-62.4,64.2-63.3
		c34.7-0.9,65,26.7,66.5,61.3c0.8,20.1,0.3,40.2,0.3,60.3c0,1.4,0,2.9,0,4.3c30.7,0,60.8,0,91.2,0c0-1.5,0-2.9,0-4.2
		c0-60.6-0.1-121.3,0.1-181.9c0-6.5-2.4-11.1-7.6-14.8c-48.9-35.3-97.8-70.6-146.6-106c-1.9-1.4-3.1-1.6-5.2-0.1
		c-49.1,35.4-98.3,70.7-147.5,106c-4.6,3.3-6.8,7.5-6.8,13.3c0.1,61.1,0.1,122.3,0.1,183.4c0,1.2,0.1,2.4,0.2,3.6
		C61.9,343.1,92,343.1,122.6,343.1z"/>
</g>
</svg>
