<?xml version="1.0" encoding="utf-8"?>
<!-- Generator: Adobe Illustrator 24.1.2, SVG Export Plug-In . SVG Version: 6.00 Build 0)  -->
<svg version="1.1" id="Layer_1" xmlns="http://www.w3.org/2000/svg" xmlns:xlink="http://www.w3.org/1999/xlink" x="0px" y="0px"
	 viewBox="0 0 276.1 239.6" style="enable-background:new 0 0 276.1 239.6;" xml:space="preserve">
<g>
	<path d="M137.8,239.6c-31.7,0-63.5,0.1-95.2,0c-20.2-0.1-36.8-13.1-41.4-32.5c-0.8-3.5-1.1-7.2-1.1-10.7c-0.1-51-0.1-102,0-153
		C0,18.2,18.2,0.1,43.3,0C106.5,0,169.8,0,233,0c24.8,0,43,18.2,43.1,43c0.1,51.1,0.1,102.3,0,153.4c0,25-18.3,43-43.4,43.1
		C201,239.6,169.4,239.6,137.8,239.6z M252.1,145c0-2.2,0-3.2,0-4.2c0-32.4,0-64.9,0-97.3c0-12.2-7.4-19.5-19.6-19.5
		c-62.9,0-125.7,0-188.6,0C31.4,24,24,31.3,24,43.7c0,42.2,0,84.3,0,126.5c0,1.2,0,2.4,0,4.3c1.5-1.3,2.4-2.1,3.2-3
		c10.2-10.1,20.3-20.3,30.5-30.4c15.3-14.9,37.4-14.9,52.7,0.1c3.8,3.8,7.7,7.5,11.4,11.4c2.3,2.4,4.3,5.1,6.5,7.6
		c1.2-1.1,1.4-1.2,1.6-1.4c13.4-13.3,26.7-26.6,40.1-39.9c1.8-1.8,3.5-3.5,5.5-5.1c14.8-11.4,34.9-10.3,48.5,3
		C233.3,125.8,242.2,135,252.1,145z M146.1,176.6c0.7,0.8,1,1.2,1.4,1.5c12.1,12.1,24.1,24.3,36.2,36.3c0.7,0.7,2.2,1.1,3.3,1.1
		c15.8,0.1,31.5,0.1,47.3,0c10-0.1,17.7-7.9,17.8-17.9c0.1-5.5,0.2-11-0.1-16.5c-0.1-1.5-0.9-3.4-1.9-4.5
		c-14-14.1-28-28.1-42.1-42.1c-6.3-6.3-13.5-6.2-19.8,0.1c-8.7,8.6-17.3,17.3-26,25.9C156.9,165.9,151.6,171.2,146.1,176.6z
		 M150.9,215.6c-1.2-1.3-1.9-2.1-2.5-2.7c-18.1-18-36.1-35.9-54.2-53.9c-6.8-6.7-13.7-6.7-20.6,0.2c-14.9,14.9-29.9,29.8-44.8,44.7
		c-0.8,0.8-1.5,1.6-2.2,2.5c3.9,6.3,9.4,9.2,16.6,9.2c19.9,0,39.8,0,59.6,0C118.5,215.6,134.2,215.6,150.9,215.6z"/>
	<path d="M84,80.6c0-18,14.9-32.7,33-32.7c18.3,0,33,14.9,33,33.1c-0.1,18-15,32.8-33,32.7C98.8,113.7,84,98.9,84,80.6z M126,80.7
		c-0.1-4.9-4.3-8.9-9.3-8.8c-4.9,0.2-8.9,4.4-8.7,9.3c0.2,4.8,4.3,8.6,9.1,8.6C122.1,89.8,126.1,85.6,126,80.7z"/>
</g>
</svg>
