<?xml version="1.0" encoding="utf-8"?>
<!-- Generator: Adobe Illustrator 24.1.2, SVG Export Plug-In . SVG Version: 6.00 Build 0)  -->
<svg version="1.1" id="Layer_1" xmlns="http://www.w3.org/2000/svg" xmlns:xlink="http://www.w3.org/1999/xlink" x="0px" y="0px"
	 viewBox="0 0 272 320.2" style="enable-background:new 0 0 272 320.2;" xml:space="preserve">
<path d="M102.6,183.4c6,3.7,11.9,7.2,17.7,10.8c5.6,3.5,8.3,8.7,7.7,15.2c-0.7,6.8-4.5,11.5-11.1,13.7c-4.4,1.5-8.7,1-12.7-1.3
	c-6.7-3.9-13.3-8-19.3-11.6c-10.1,10.4-20.1,21-30.4,31.4c-3.7,3.7-7.8,7.1-11.8,10.4c-7.2,5.9-16.7,5.1-22.5-1.5
	c-5.9-6.8-5.4-16.6,1.8-22.7c13.4-11.4,25.8-23.6,36.7-37.4c0.8-1,1.5-2,1.6-2.1c-6.6-11.2-13.4-21.7-19-32.8
	c-3.6-7-5.9-14.8-8.2-22.5c-2.7-9,2.1-17.7,10.7-20.2c8.8-2.5,17.5,2.4,20,11.6c3.2,11.5,7.9,22.3,14.5,32.3
	c0.4,0.6,0.9,1.1,1.7,2.1c16.8-29.7,26.9-61.1,30.9-95c-1.9,0-3.4,0-4.8,0c-29.8,0-59.5,0-89.3,0C5,63.9-2.8,53.2,0.9,42.6
	c2.3-6.7,8.4-10.7,16.4-10.7c19.3,0,38.5,0,57.8,0c1.5,0,3,0,5.1,0c0-5.6-0.1-10.9,0-16.2C80.4,6.3,87.5-0.3,96.8,0
	c8.1,0.3,14.8,6.6,15.1,14.7c0.2,5.5,0,11,0,16.9c1.8,0.1,3.2,0.2,4.6,0.2c19.3,0,38.5,0,57.8,0c5.1,0,9.7,1.2,13.3,5
	c4.5,4.9,5.9,10.7,3.3,17c-2.6,6.4-7.6,9.9-14.5,10c-9.6,0.2-19.3,0.1-28.9,0.1c-1.4,0-2.7,0-4.5,0
	C138.5,106.5,125.3,146.1,102.6,183.4z"/>
<path d="M171.1,256c-3.6,16.1-7.1,31.8-10.6,47.5c-0.4,1.6-0.7,3.2-1.1,4.7c-2.4,8.4-10.1,13.3-18.3,11.8c-8.6-1.6-14.3-9-12.9-17.7
	c1.3-8.4,3.5-16.6,5.3-24.9c7.2-32.2,14.2-64.3,21.5-96.4c5.1-22.4,23.2-36.9,45.3-36.8c21.9,0.1,39.8,14.9,44.8,37
	c8.8,39.3,17.5,78.7,26.2,118c1.9,8.4-1.2,15.6-8.1,19.1c-6.5,3.3-14.4,2-19.1-3.8c-2-2.4-3.3-5.6-4-8.7c-3.7-15.7-7-31.4-10.7-47.1
	c-0.2-1.1-1.7-2.6-2.6-2.6C208.5,255.9,190,256,171.1,256z M178.4,223.6c14.7,0,28.9,0,43.6,0c-3-13-5.6-25.6-8.8-38.2
	c-1.5-6-7.4-9.7-13.3-9.6c-6,0.1-11.3,4.1-13,10c-1.1,3.7-1.8,7.5-2.7,11.3C182.3,205.9,180.3,214.6,178.4,223.6z"/>
</svg>
