<?xml version="1.0" encoding="utf-8"?>
<!-- Generator: Adobe Illustrator 24.1.2, SVG Export Plug-In . SVG Version: 6.00 Build 0)  -->
<svg version="1.1" id="Layer_1" xmlns="http://www.w3.org/2000/svg" xmlns:xlink="http://www.w3.org/1999/xlink" x="0px" y="0px"
	 viewBox="0 0 384 384" style="enable-background:new 0 0 384 384;" xml:space="preserve">
<g>
	<path d="M210.8,0c7.1,2.5,12.5,6.6,14.4,14.3c2.8,11.2-5.2,22.3-16.8,23.2c-1.5,0.1-3,0.1-4.5,0.1c-53.9,0-107.7,0-161.6,0
		c-1.5,0-2.9,0-4.6,0c0,103,0,205.7,0,309c1.4,0,2.8,0,4.2,0c54.7,0,109.5,0,164.2,0c11.4,0,19.9,8.3,19.6,19.1
		c-0.3,8-4.3,13.6-11.6,16.9c-1.1,0.5-2.2,1-3.4,1.4c-65.3,0-130.5,0-195.8,0c-7.6-2.4-12.6-7.4-15-15C0,251,0,133,0,15
		C2.4,7.4,7.4,2.4,15,0C80.3,0,145.5,0,210.8,0z"/>
	<path d="M384,195.8c-1.8,5.6-5.6,9.8-9.8,13.9c-29.9,29.7-59.7,59.4-89.5,89.2c-4.6,4.6-9.7,7.3-16.4,6.7
		c-7.4-0.7-12.6-4.6-15.5-11.3c-3-6.9-1.8-13.5,3-19.3c2.2-2.7,4.8-5,7.3-7.5c17.9-17.8,35.8-35.7,53.6-53.5
		c0.8-0.8,1.5-1.6,2.9-3.1c-2.1,0-3.5,0-4.9,0c-57.7,0-115.5,0-173.2,0c-11.8,0-20.2-8.1-20-19.1c0.2-9.6,7.8-17.7,17.4-18.3
		c1.4-0.1,2.7-0.1,4.1-0.1c57.2,0,114.5,0,171.7,0c1.4,0,2.7,0,4.9,0c-1.3-1.4-2.2-2.4-3.1-3.3c-19.8-19.8-39.7-39.5-59.5-59.3
		c-9.6-9.6-7.3-24.8,4.6-30.5c7.6-3.7,15.6-2.2,22.2,4.4c14.5,14.3,28.9,28.7,43.3,43.1c15.7,15.6,31.3,31.3,47,46.8
		c4.1,4.1,8,8.2,9.8,13.9C384,190.8,384,193.3,384,195.8z"/>
</g>
</svg>
