<?xml version="1.0" encoding="utf-8"?>
<!-- Generator: Adobe Illustrator 24.1.2, SVG Export Plug-In . SVG Version: 6.00 Build 0)  -->
<svg version="1.1" id="Layer_1" xmlns="http://www.w3.org/2000/svg" xmlns:xlink="http://www.w3.org/1999/xlink" x="0px" y="0px"
	 viewBox="0 0 249.9 248.9" style="enable-background:new 0 0 249.9 248.9;" xml:space="preserve">
<path d="M249.9,150.7c-2.2,6.7-4.1,13.5-6.8,20c-7.1,17.7-17.9,32.9-32.2,45.6c-14.9,13.3-32.1,22.7-51.3,28
	c-13.9,3.8-28.1,5.2-42.5,4.1C86.5,246.1,60,234.2,38,212.7C18.7,193.9,6.7,171,2,144.4c-4.4-24.9-1.4-49.1,8.6-72.3
	c8.7-20.2,22-36.9,39.5-50.2C62.9,12.1,77.1,5,92.5,0.5c4.2-1.2,8.1-0.2,10.3,2.9c2.3,3.2,2.2,6.8-0.8,10.5
	C90.6,28,84.4,44.2,82.6,62.1c-2,20,2,38.8,12,56.3c10.3,18,25.1,31.2,44.1,39.4c15.9,6.9,32.6,9.2,49.9,6.9
	c17.4-2.3,32.8-9.3,46.6-20.2c1.6-1.3,3.6-2.4,5.5-2.8c4.2-0.9,7,1,9.2,5.7C249.9,148.5,249.9,149.6,249.9,150.7z M225.8,171.1
	c-46.3,19.2-89.6,15.1-126-20.4C63.4,115.3,57.9,72.1,75.8,25.4C40.8,42.8,11.8,84.8,18.2,135.8c6.1,49,45,89,95.4,95.2
	C162.1,237.1,205.8,210.5,225.8,171.1z"/>
</svg>
