<?xml version="1.0" encoding="utf-8"?>
<!-- Generator: Adobe Illustrator 24.1.2, SVG Export Plug-In . SVG Version: 6.00 Build 0)  -->
<svg version="1.1" id="Layer_1" xmlns="http://www.w3.org/2000/svg" xmlns:xlink="http://www.w3.org/1999/xlink" x="0px" y="0px"
	 viewBox="0 0 408.9 408.9" style="enable-background:new 0 0 408.9 408.9;" xml:space="preserve">
<g>
	<path d="M216.4,408.9c-8,0-16,0-24,0c-1-0.2-2-0.6-3.1-0.7c-28.5-1.9-55.7-9.3-80.6-23.2C41.6,347.5,5.1,289.9,0.4,213
		c-2.3-36.9,5.7-72.2,23.7-104.5c37.5-67,95-103.4,171.8-108.1c36.9-2.3,72.1,5.8,104.5,23.7c57.7,31.7,92.9,80.1,105.3,144.9
		c1.5,7.8,2.2,15.7,3.2,23.6c0,8,0,16,0,24c-0.2,1.1-0.6,2.3-0.7,3.4c-2,28.5-9.5,55.6-23.3,80.5c-31.8,57.6-80.1,92.9-144.8,105.3
		C232.3,407.2,224.3,407.9,216.4,408.9z M376.9,204.7C377.1,109.6,300,32.3,204.8,32c-95.1-0.3-172.7,77-172.9,172.3
		C31.7,299.4,108.8,376.7,204,377C299.2,377.3,376.8,300,376.9,204.7z"/>
	<path d="M188.5,234.2c0-6.4-0.1-12.8,0-19.2c0.1-9.1,5.6-15.5,14.7-16.3c10.5-0.9,19.8-4,26.4-12.8c7.8-10.4,9.1-21.8,3.4-33.4
		c-6-12.1-16.2-18.2-29.7-17.7c-16.8,0.6-28.8,12.5-30.6,29.5c-0.2,1.7-0.2,3.5-0.5,5.2c-1.7,8.4-9,13.7-17.6,12.7
		c-8.1-0.9-14.2-7.6-14-16.2c0.6-22.5,10-40.5,28.8-52.7c21.4-13.9,44.3-14.8,66.5-2.2c22.8,13,33.5,33.6,32.2,59.8
		c-1.2,25.6-19.2,48.2-44,56.2c-3,0.9-3.9,2.2-3.8,5.2c0.3,6.9,0.1,13.8,0.1,20.8c-0.1,10.1-6.8,17.2-16.1,17.1
		c-9.2-0.1-15.8-7-15.8-16.9C188.4,247,188.5,240.6,188.5,234.2z"/>
	<path d="M204.3,322.2c-11.1-0.1-20-9.2-19.8-20.2c0.2-10.9,9.2-19.6,20-19.6c11.1,0.1,20,9.2,19.8,20.2
		C224.2,313.5,215.2,322.3,204.3,322.2z"/>
</g>
</svg>
