<?xml version="1.0" standalone="no"?>
<!DOCTYPE svg PUBLIC "-//W3C//DTD SVG 20010904//EN"
 "http://www.w3.org/TR/2001/REC-SVG-20010904/DTD/svg10.dtd">
<svg version="1.0" xmlns="http://www.w3.org/2000/svg"
 width="512.000000pt" height="512.000000pt" viewBox="0 0 512.000000 512.000000"
 preserveAspectRatio="xMidYMid meet">

<g transform="translate(0.000000,512.000000) scale(0.100000,-0.100000)"
stroke="none">
<path d="M1935 4683 c-775 -100 -1378 -689 -1491 -1455 -22 -154 -15 -419 15
-572 134 -665 647 -1189 1306 -1335 441 -97 895 -18 1280 224 50 31 99 65 110
76 19 19 24 14 615 -575 648 -647 619 -622 730 -614 105 8 180 83 188 188 8
111 33 82 -613 730 l-593 595 35 45 c59 76 145 230 190 340 83 205 120 372
130 585 40 870 -596 1636 -1462 1760 -91 13 -362 18 -440 8z m327 -424 c194
-21 385 -85 540 -182 98 -61 138 -93 235 -189 144 -142 249 -312 312 -504 89
-272 80 -603 -23 -862 -131 -330 -407 -605 -736 -732 -191 -73 -457 -99 -661
-65 -270 45 -508 167 -697 358 -132 134 -206 241 -274 398 -191 444 -115 955
197 1327 237 283 583 449 962 461 23 0 89 -4 145 -10z"/>
</g>
</svg>
