<?xml version="1.0" encoding="utf-8"?>
<!-- Generator: Adobe Illustrator 24.1.2, SVG Export Plug-In . SVG Version: 6.00 Build 0)  -->
<svg version="1.1" id="Layer_1" xmlns="http://www.w3.org/2000/svg" xmlns:xlink="http://www.w3.org/1999/xlink" x="0px" y="0px"
	 viewBox="0 0 383.4 383.4" style="enable-background:new 0 0 383.4 383.4;" xml:space="preserve">
<path d="M0.1,81.8c27.3,0,54.2,0,81.6,0c0-27.4,0-54.5,0-81.8c9.3,0,18.1,0,27.5,0c0,1.3,0,2.6,0,3.9c0,29.9,0,59.9,0,89.8
	c0,10.2-5.3,15.5-15.4,15.5c-30.1,0-60.1,0-90.2,0c-1.1,0-2.2,0-3.6,0C0.1,100.1,0.1,91.2,0.1,81.8z"/>
<path d="M383.3,301.6c-27.3,0-54.2,0-81.6,0c0,27.4,0,54.5,0,81.8c-9.3,0-18.1,0-27.5,0c0-1.3,0-2.6,0-3.9c0-29.9,0-59.9,0-89.8
	c0-10.2,5.3-15.5,15.4-15.5c30.1,0,60.1,0,90.2,0c1.1,0,2.2,0,3.6,0C383.3,283.3,383.3,292.2,383.3,301.6z"/>
<path d="M301.6,0.1c0,27.3,0,54.2,0,81.6c27.4,0,54.5,0,81.8,0c0,9.3,0,18.1,0,27.5c-1.3,0-2.6,0-3.9,0c-29.9,0-59.9,0-89.8,0
	c-10.2,0-15.5-5.3-15.5-15.4c0-30.1,0-60.1,0-90.2c0-1.1,0-2.2,0-3.6C283.3,0.1,292.2,0.1,301.6,0.1z"/>
<path d="M81.8,383.3c0-27.3,0-54.2,0-81.6c-27.4,0-54.5,0-81.8,0c0-9.3,0-18.1,0-27.5c1.3,0,2.6,0,3.9,0c29.9,0,59.9,0,89.8,0
	c10.2,0,15.5,5.3,15.5,15.4c0,30.1,0,60.1,0,90.2c0,1.1,0,2.2,0,3.6C100.1,383.3,91.2,383.3,81.8,383.3z"/>
</svg>
